<svg xmlns="http://www.w3.org/2000/svg" xmlns:xlink="http://www.w3.org/1999/xlink" width="1000px" height="500px" viewBox="0 0 1000 500" zoomAndPan="disable" preserveAspectRatio="none">

    <style type="text/css"><![CDATA[
		line
		{
			stroke: rgba(25,25,25,.1);
			stroke-width: 1px;
		}
    ]]></style>

	<!-- <line  x1="1100" y1="500" x2="-1000" y2="250" />
	<line  x1="1100" y1="500" x2="-1000" y2="-100" />
	<line  x1="1100" y1="500" x2="-1000" y2="-500" />
	<line  x1="1100" y1="500" x2="-250" y2="-500" />
	<line  x1="1100" y1="500" x2="300" y2="-500" />
	<line  x1="1100" y1="500" x2="750" y2="-500" />

	<line  x1="1750" y1="0" x2="750" y2="500" />
	<line  x1="1500" y1="0" x2="500" y2="500" />
	<line  x1="1150" y1="0" x2="150" y2="500" />
	<line  x1="700" y1="0" x2="-300" y2="500" />
	<line  x1="150" y1="0" x2="-850" y2="500" /> -->
	<line x1="0" y1="0" x2="1000" y2="0" />
	<line x1="0" y1="0" x2="1000" y2="500" />
	<line x1="0" y1="0" x2="1000" y2="450" />
	<line x1="0" y1="0" x2="1000" y2="400" />
	<line x1="0" y1="0" x2="1000" y2="350" />
	<line x1="0" y1="0" x2="1000" y2="300" />
	<line x1="0" y1="0" x2="1000" y2="250" />
	<line x1="0" y1="0" x2="1000" y2="200" />
	<line x1="0" y1="0" x2="1000" y2="150" />
	<line x1="0" y1="0" x2="1000" y2="100" />
	<line x1="0" y1="0" x2="1000" y2="50" />

	<line x1="0" y1="0" x2="850" y2="500" />
	<line x1="0" y1="0" x2="700" y2="500" />
	<line x1="0" y1="0" x2="550" y2="500" />
	<line x1="0" y1="0" x2="400" y2="500" />
	<line x1="0" y1="0" x2="250" y2="500" />
	<line x1="0" y1="0" x2="100" y2="500" />


	<!-- <line x1="0" y1="40" x2="1000" y2="40" />
	<line x1="0" y1="50" x2="1000" y2="50" />
	<line x1="0" y1="60" x2="1000" y2="60" />

	<line x1="0" y1="440" x2="1000" y2="440" />
	<line x1="0" y1="450" x2="1000" y2="450" />
	<line x1="0" y1="460" x2="1000" y2="460" /> -->

	<line x1="1000" y1="500" x2="0" y2="50"/>
	<line x1="1000" y1="500" x2="0" y2="100"/>
	<line x1="1000" y1="500" x2="0" y2="150"/>
	<line x1="1000" y1="500" x2="0" y2="200"/>
	<line x1="1000" y1="500" x2="0" y2="250"/>
	<line x1="1000" y1="500" x2="0" y2="300"/>
	<line x1="1000" y1="500" x2="0" y2="350"/>
	<line x1="1000" y1="500" x2="0" y2="400"/>
	<line x1="1000" y1="500" x2="0" y2="450"/>
	<line x1="1000" y1="500" x2="0" y2="500"/>

	<line x1="1000" y1="500" x2="150" y2="0"/>
	<line x1="1000" y1="500" x2="300" y2="0"/>
	<line x1="1000" y1="500" x2="450" y2="0"/>
	<line x1="1000" y1="500" x2="600" y2="0"/>
	<line x1="1000" y1="500" x2="750" y2="0"/>
	<line x1="1000" y1="500" x2="900" y2="0"/>



</svg>